<svg width="76" height="76" viewBox="0 0 76 76" fill="none" xmlns="http://www.w3.org/2000/svg">
<circle cx="38" cy="38" r="38" fill="#FFDC83"/>
<path d="M18 37.6222C18 37.6536 18.0021 37.6851 18.0063 37.7162L20.6982 57.8153C20.7681 58.3271 21.0217 58.7965 21.4121 59.1368C21.8025 59.477 22.3033 59.6652 22.8222 59.6666H53.0004C53.5685 59.666 54.1132 59.441 54.5149 59.0411C54.9167 58.6412 55.1426 58.0989 55.1433 57.5333V54.736L57.9942 33.4496C57.9942 33.4465 57.9942 33.4434 57.9949 33.4407C57.9966 33.4263 57.9975 33.4117 57.9984 33.397C57.999 33.3864 57.9998 33.3758 58 33.3651C58 33.362 58 33.359 58 33.3562V30.5111C58 30.3225 57.9247 30.1416 57.7908 30.0083C57.6568 29.8749 57.4752 29.8 57.2857 29.8H43.0003C42.8108 29.8 42.6292 29.8749 42.4952 30.0083C42.3612 30.1416 42.286 30.3225 42.286 30.5111V33.3555C42.286 33.3587 42.286 33.3618 42.286 33.3644C42.286 33.3751 42.287 33.3857 42.2876 33.3963C42.2885 33.411 42.2894 33.4256 42.2911 33.44C42.2911 33.443 42.2911 33.446 42.2918 33.4489L43.6087 43.2813C42.1726 43.1727 41.7287 42.7858 41.5987 42.6043C41.5524 42.5391 41.5214 42.4643 41.5081 42.3856C41.4948 42.3068 41.4995 42.2261 41.5218 42.1494C41.57 42.0441 41.5904 41.9282 41.5811 41.8128C41.5717 41.6974 41.5328 41.5863 41.4682 41.4901C41.4011 41.391 41.3099 41.3104 41.2031 41.2557C41.0964 41.2011 40.9774 41.1743 40.8574 41.1777C39.4362 41.1777 38.3409 41.4533 37.4386 41.8627L37.994 37.7162C37.9982 37.6851 38.0002 37.6536 38.0002 37.6222C37.9989 35.9183 37.525 34.2478 36.6309 32.7949C35.7367 31.342 34.457 30.163 32.9328 29.388C32.9937 29.2583 33.0138 29.1133 32.9904 28.972L32.2761 24.7053C32.2483 24.5393 32.1623 24.3884 32.0333 24.2796C31.9043 24.1708 31.7407 24.1111 31.5716 24.1111H30.8573V21.2666H35.8573C36.0468 21.2666 36.2285 21.1917 36.3624 21.0584C36.4964 20.925 36.5716 20.7441 36.5716 20.5555V17.7111C36.5716 17.6137 36.5515 17.5174 36.5126 17.4281C36.4737 17.3387 36.4168 17.2583 36.3453 17.1918C36.2739 17.1253 36.1895 17.0741 36.0974 17.0414C36.0053 17.0086 35.9074 16.9951 35.8098 17.0016L25.0954 17.7127C24.954 17.7221 24.8185 17.7732 24.7063 17.8595C24.5941 17.9458 24.5102 18.0634 24.4653 18.1973L23.751 20.3306C23.7153 20.4375 23.7055 20.5514 23.7226 20.6628C23.7396 20.7741 23.783 20.8799 23.8492 20.9713C23.9154 21.0627 24.0024 21.1372 24.1032 21.1885C24.2039 21.2399 24.3155 21.2666 24.4286 21.2666H25.1429V24.1111H24.4286C24.2596 24.1111 24.096 24.1708 23.9669 24.2796C23.8379 24.3884 23.7519 24.5393 23.7241 24.7053L23.0098 28.972C22.9864 29.1133 23.0065 29.2583 23.0675 29.388C21.5432 30.163 20.2635 31.342 19.3694 32.7949C18.4752 34.2478 18.0014 35.9183 18 37.6222V37.6222ZM47.286 58.2444H30.0508C29.8858 58.2443 29.7277 58.179 29.6111 58.0628C29.4945 57.9467 29.4289 57.7893 29.4287 57.6251V50.3304C29.4289 50.1662 29.4945 50.0088 29.6111 49.8926C29.7277 49.7765 29.8858 49.7112 30.0508 49.7111H47.3783C47.5432 49.7112 47.7013 49.7765 47.818 49.8926C47.9346 50.0088 48.0002 50.1662 48.0003 50.3304V57.6251C48.0002 57.7893 47.9346 57.9467 47.818 58.0628C47.7013 58.179 47.5432 58.2443 47.3783 58.2444H47.286ZM31.5716 46.8666H45.8575V48.2889H31.5716V46.8666ZM53.7147 57.5333C53.7145 57.7218 53.6392 57.9026 53.5052 58.0359C53.3713 58.1692 53.1898 58.2442 53.0004 58.2444H49.3322C49.3964 58.0442 49.429 57.8353 49.4289 57.6251V55.4H53.7147V57.5333ZM53.804 53.9777H49.4289V50.3304C49.4283 49.7891 49.2121 49.2702 48.8276 48.8875C48.4432 48.5048 47.922 48.2895 47.3783 48.2889H47.286V46.1555C47.286 46.1356 47.2847 46.1161 47.2831 46.0965C47.2831 46.0937 47.2824 46.0887 47.2819 46.0842V46.0818C47.2282 45.6158 47.0866 45.164 46.8647 44.7501C46.6857 44.4023 46.4311 44.0987 46.1194 43.8612C45.8077 43.6237 45.4468 43.4584 45.0628 43.3772L43.8161 34.0666H56.4703L53.804 53.9777ZM43.7146 31.2222H56.5719V32.6444H43.7146V31.2222ZM40.4036 43.3842C41.0077 44.2794 42.3619 44.7333 44.4289 44.7333C44.9646 44.7333 45.3336 44.9439 45.5914 45.3961C45.6003 45.4122 45.6092 45.4283 45.6175 45.4444H34.8771C35.1819 45.2119 35.4722 44.9677 35.7599 44.7253C36.923 43.7455 38.0284 42.8142 40.0998 42.6321C40.1458 42.9016 40.2494 43.1581 40.4036 43.3842ZM25.6689 19.1L35.143 18.4712V19.8444H25.4197L25.6689 19.1ZM26.5715 21.2666H29.4287V24.1111H26.5715V21.2666ZM24.5576 28.3778L25.0337 25.5333H30.9665L31.4427 28.3778H24.5576ZM27.2858 29.8H28.7144C30.7895 29.8023 32.7797 30.6208 34.2514 32.0773C35.7231 33.5337 36.557 35.5101 36.5716 37.576L35.8713 42.8044C35.5037 43.0783 35.165 43.3632 34.8371 43.6394C33.6877 44.6081 32.6947 45.4444 30.8573 45.4444C30.6678 45.4444 30.4862 45.5193 30.3522 45.6527C30.2182 45.7861 30.143 45.9669 30.143 46.1555V48.2889H30.0508C29.5071 48.2895 28.9858 48.5048 28.6014 48.8875C28.217 49.2702 28.0007 49.7891 28.0001 50.3304V57.6251C28 57.8353 28.0327 58.0442 28.0968 58.2444H22.8222C22.6492 58.2439 22.4823 58.1812 22.3522 58.0678C22.222 57.9543 22.1375 57.7979 22.1142 57.6273L19.4286 37.576C19.4432 35.5101 20.2772 33.5337 21.7488 32.0773C23.2205 30.6208 25.2107 29.8023 27.2858 29.8V29.8Z" fill="black"/>
<path d="M38.7146 51.1333C38.1495 51.1333 37.5971 51.3001 37.1272 51.6127C36.6574 51.9252 36.2912 52.3695 36.0749 52.8892C35.8587 53.409 35.8021 53.9809 35.9123 54.5327C36.0226 55.0844 36.2947 55.5913 36.6943 55.9891C37.0939 56.3869 37.603 56.6578 38.1572 56.7675C38.7114 56.8773 39.2859 56.821 39.808 56.6057C40.3301 56.3904 40.7763 56.0258 41.0903 55.558C41.4042 55.0903 41.5718 54.5403 41.5718 53.9777C41.5709 53.2236 41.2696 52.5006 40.734 51.9674C40.1983 51.4341 39.4721 51.1341 38.7146 51.1333V51.1333ZM38.7146 55.4C38.4321 55.4 38.1558 55.3166 37.9209 55.1603C37.686 55.004 37.5029 54.7819 37.3948 54.522C37.2866 54.2621 37.2583 53.9762 37.3135 53.7003C37.3686 53.4244 37.5046 53.171 37.7044 52.9721C37.9042 52.7732 38.1588 52.6377 38.4359 52.5829C38.713 52.528 39.0003 52.5561 39.2613 52.6638C39.5223 52.7714 39.7455 52.9537 39.9024 53.1876C40.0594 53.4215 40.1432 53.6965 40.1432 53.9777C40.1427 54.3548 39.9921 54.7163 39.7243 54.9829C39.4565 55.2495 39.0933 55.3995 38.7146 55.4V55.4Z" fill="black"/>
<path d="M50.1432 41.1777C52.179 41.1777 53.7147 40.2607 53.7147 39.0444C53.7147 37.8281 52.179 36.9111 50.1432 36.9111C48.1075 36.9111 46.5718 37.8281 46.5718 39.0444C46.5718 40.2607 48.1075 41.1777 50.1432 41.1777ZM50.1432 38.3333C51.5261 38.3333 52.2861 38.8674 52.2861 39.0444C52.2861 39.2214 51.5261 39.7555 50.1432 39.7555C48.7604 39.7555 48.0004 39.2214 48.0004 39.0444C48.0004 38.8674 48.7604 38.3333 50.1432 38.3333Z" fill="black"/>
<path d="M23.7143 40.4667H32.2858C32.4753 40.4667 32.6569 40.3917 32.7909 40.2584C32.9249 40.125 33.0001 39.9441 33.0001 39.7555V35.4889C33.0001 35.3003 32.9249 35.1194 32.7909 34.9861C32.6569 34.8527 32.4753 34.7778 32.2858 34.7778H23.7143C23.5249 34.7778 23.3432 34.8527 23.2092 34.9861C23.0753 35.1194 23 35.3003 23 35.4889V39.7555C23 39.9441 23.0753 40.125 23.2092 40.2584C23.3432 40.3917 23.5249 40.4667 23.7143 40.4667ZM24.4286 36.2H31.5715V39.0444H24.4286V36.2Z" fill="black"/>
</svg>
