<svg width="76" height="76" viewBox="0 0 76 76" fill="none" xmlns="http://www.w3.org/2000/svg">
<circle cx="38" cy="38" r="38" fill="#FFDC83"/>
<path d="M32.74 34.6108C33.1715 34.6108 33.5213 34.261 33.5213 33.8295C33.5213 33.398 33.1715 33.0482 32.74 33.0482C32.3085 33.0482 31.9587 33.398 31.9587 33.8295C31.9587 34.261 32.3085 34.6108 32.74 34.6108Z" fill="black"/>
<path d="M57.0633 50.3824C56.4582 49.7773 55.6538 49.4441 54.798 49.4441C53.9421 49.4441 53.1377 49.7773 52.5326 50.3824L50.3839 52.5312C49.7788 53.1363 49.4456 53.9408 49.4456 54.7965C49.4456 55.6522 49.7789 56.4568 50.3839 57.0619C51.0084 57.6864 51.8289 57.9987 52.6492 57.9987C53.4696 57.9987 54.29 57.6864 54.9146 57.0619L57.0633 54.9131C58.3124 53.6639 58.3124 51.6315 57.0633 50.3824ZM55.9584 53.8082L53.8096 55.9569C53.4997 56.2669 53.0876 56.4376 52.6492 56.4376C52.2108 56.4376 51.7987 56.2669 51.4888 55.9569C50.8489 55.3171 50.8489 54.2758 51.4888 53.6361L53.6375 51.4873C53.9474 51.1773 54.3596 51.0067 54.798 51.0067C55.2363 51.0067 55.6485 51.1774 55.9584 51.4873C56.5983 52.1272 56.5983 53.1684 55.9584 53.8082Z" fill="black"/>
<path d="M52.6492 45.4215C53.4696 45.4215 54.29 45.1092 54.9146 44.4847L57.0633 42.3359C58.3124 41.0868 58.3124 39.0544 57.0633 37.8053C56.4582 37.2002 55.6538 36.867 54.798 36.867C53.9421 36.867 53.1377 37.2002 52.5326 37.8053L50.3839 39.954C49.7788 40.5591 49.4456 41.3636 49.4456 42.2194C49.4456 43.0751 49.7789 43.8796 50.3839 44.4847C51.0084 45.1092 51.8289 45.4215 52.6492 45.4215ZM51.4888 41.059L53.6376 38.9103C53.9475 38.6002 54.3597 38.4296 54.798 38.4296C55.2364 38.4296 55.6485 38.6003 55.9585 38.9103C56.5983 39.55 56.5983 40.5913 55.9585 41.231L53.8097 43.3798C53.4998 43.6898 53.0877 43.8604 52.6493 43.8604C52.2109 43.8604 51.7988 43.6897 51.4888 43.3798C50.849 42.7399 50.849 41.6988 51.4888 41.059Z" fill="black"/>
<path d="M47.4801 46.0115V32.0061C47.4801 30.7165 47.0152 29.4694 46.1711 28.4946C45.327 27.5198 44.1591 26.8814 42.8828 26.697C41.7104 26.5276 40.7731 25.6642 40.4661 24.5637H40.5259C41.388 24.5637 42.0894 23.8623 42.0894 23.0002V19.5635C42.0893 18.7014 41.3879 18 40.5258 18H24.9543C24.0922 18 23.3908 18.7014 23.3908 19.5635V23.0002C23.3908 23.8623 24.0922 24.5637 24.9543 24.5637H25.0141C24.7071 25.6641 23.7698 26.5276 22.5974 26.697C21.3211 26.8813 20.1532 27.5197 19.3091 28.4946C18.465 29.4695 18 30.7165 18 32.0061V53.4943C18 55.9796 20.022 58.0015 22.5073 58.0015H42.9728C45.4581 58.0015 47.48 55.9796 47.48 53.4943V52.1845C47.8388 52.0265 48.1691 51.8024 48.4547 51.5168C49.0598 50.9117 49.393 50.1073 49.393 49.2515C49.393 48.3958 49.0598 47.5913 48.4547 46.9862L47.4801 46.0115ZM33.6724 23.0007L31.8077 23.0007V19.563L33.6724 19.5631V23.0007ZM35.235 19.5632L37.0996 19.5633V23.0009L35.235 23.0008V19.5632ZM30.2452 23.0005L28.3806 23.0004V19.5628L30.2452 19.5629V23.0005ZM40.5267 19.5635L40.5269 23.0011C40.5269 23.0011 40.5266 23.0011 40.5258 23.0011L38.6621 23.0011V19.5634L40.5267 19.5635ZM24.9534 23.0002L24.9543 19.5626L26.818 19.5626V23.0003L24.9534 23.0002ZM22.8207 28.2434C24.7602 27.9633 26.2796 26.4424 26.6147 24.5636H38.8655C39.2005 26.4424 40.7199 27.9633 42.6595 28.2434C44.517 28.5117 45.9176 30.1293 45.9176 32.006V33.0479H36.2558C35.8243 33.0479 35.4745 33.3978 35.4745 33.8292C35.4745 34.2606 35.8243 34.6105 36.2558 34.6105H45.9176V44.5063C45.3749 44.1123 44.7243 43.8991 44.0407 43.8991C43.185 43.8991 42.3805 44.2323 41.7753 44.8374C41.1702 45.4425 40.837 46.247 40.837 47.1028C40.837 47.9585 41.1703 48.763 41.7753 49.3681L43.4111 51.0039H19.5626V34.6105H29.2243C29.6558 34.6105 30.0056 34.2606 30.0056 33.8292C30.0056 33.3978 29.6558 33.0479 29.2243 33.0479H19.5626V32.006C19.5626 30.1293 20.9632 28.5117 22.8207 28.2434V28.2434ZM42.9728 56.439H22.5073C20.8835 56.439 19.5626 55.118 19.5626 53.4943V52.5664H45.9176V53.4943C45.9176 55.118 44.5965 56.439 42.9728 56.439ZM47.3498 50.4119C46.71 51.0517 45.6688 51.0517 45.0289 50.4119L42.8802 48.2631C42.5702 47.9532 42.3995 47.5411 42.3995 47.1027C42.3995 46.6643 42.5702 46.2522 42.8802 45.9422C43.1901 45.6322 43.6022 45.4616 44.0406 45.4616C44.479 45.4616 44.891 45.6323 45.2011 45.9422L47.3498 48.091C47.6598 48.4009 47.8304 48.8131 47.8304 49.2514C47.8304 49.6898 47.6598 50.102 47.3498 50.4119Z" fill="black"/>
<path d="M25.991 38.9264C25.7561 39.004 25.5718 39.1883 25.4943 39.4231C24.8432 41.3935 25.4221 43.6662 26.969 45.2131C28.0943 46.3383 29.6036 46.9514 31.1011 46.9514C31.6529 46.9514 32.203 46.8677 32.7319 46.6962C32.7346 46.6954 32.7373 46.6946 32.7401 46.6938C32.7428 46.6946 32.7456 46.6954 32.7483 46.6962C33.2772 46.8677 33.8271 46.9514 34.3791 46.9514C35.8765 46.9514 37.386 46.3382 38.5112 45.2131C40.0581 43.6662 40.6369 41.3934 39.986 39.4231C39.9084 39.1883 39.7241 39.004 39.4892 38.9264C37.5189 38.2754 35.2463 38.8543 33.6993 40.4012C33.3199 40.7806 32.9992 41.2038 32.7401 41.6553C32.481 41.2038 32.1602 40.7806 31.7809 40.4012C30.234 38.8543 27.9612 38.2755 25.991 38.9264V38.9264ZM34.8041 41.5061C35.8344 40.4758 37.2887 40.0266 38.6077 40.3046C38.8858 41.6237 38.4366 43.0779 37.4063 44.1082C36.6405 44.8741 35.6403 45.3183 34.6355 45.3819L36.1792 43.8381C36.4843 43.533 36.4843 43.0383 36.1792 42.7332C35.8741 42.4281 35.3794 42.4281 35.0742 42.7332L33.5307 44.2767C33.5943 43.2721 34.0383 42.2719 34.8041 41.5061V41.5061ZM31.9495 44.2767L30.4059 42.7332C30.1008 42.4282 29.6061 42.4281 29.301 42.7332C28.996 43.0382 28.9959 43.533 29.301 43.8381L30.8447 45.3818C29.84 45.3182 28.8398 44.8741 28.074 44.1082C27.0437 43.0779 26.5945 41.6236 26.8725 40.3046C28.1914 40.0269 29.6458 40.4758 30.676 41.5061C31.4418 42.2719 31.8858 43.2721 31.9495 44.2767V44.2767Z" fill="black"/>
</svg>
